<svg width="109" height="109" viewBox="0 0 109 109" fill="none" xmlns="http://www.w3.org/2000/svg">
<circle cx="54.5" cy="54.5" r="53.5" fill="white" stroke="#004028" stroke-width="2"/>
<path d="M36.6726 39.8641C37.2268 40.0751 37.8477 39.797 38.0588 39.2426L38.4005 38.3454H40.8219L41.1593 39.2395C41.3695 39.7964 41.9901 40.0742 42.5436 39.8653C43.0988 39.6559 43.3789 39.036 43.1695 38.481L40.7614 32.1002C40.5934 31.6441 40.1436 31.3145 39.6208 31.3145C39.6208 31.3145 39.6201 31.3145 39.6197 31.3145C39.1008 31.3149 38.6557 31.6377 38.4811 32.0975L36.0511 38.4779C35.84 39.0324 36.1182 39.653 36.6726 39.8641ZM40.0112 36.1969H39.2188L39.6168 35.1518L40.0112 36.1969Z" fill="#004028"/>
<path d="M62.2537 39.9136C62.4548 39.9483 63.8688 39.9338 64.7077 39.9292C65.301 39.9258 65.7793 39.4422 65.7759 38.8489C65.7727 38.2729 65.3099 37.7807 64.6957 37.7807C64.2955 37.783 63.8751 37.7847 63.5098 37.7855V32.3887C63.5098 31.7955 63.0288 31.3145 62.4355 31.3145C61.8424 31.3145 61.3613 31.7955 61.3613 32.3887V38.8548C61.3613 39.378 61.7382 39.8251 62.2537 39.9136Z" fill="#004028"/>
<path d="M68.8204 35.873L68.8131 38.8577C68.8116 39.451 69.2915 39.9331 69.8848 39.9345H69.8874C70.4794 39.9345 70.9601 39.4553 70.9616 38.8628L70.9689 35.8745L72.8458 32.991C73.1695 32.4939 73.0288 31.8284 72.5315 31.5048C72.0344 31.1809 71.369 31.3219 71.0452 31.8191L69.894 33.5876L68.7277 31.8013C68.4034 31.3045 67.7379 31.1647 67.241 31.4892C66.7442 31.8136 66.6044 32.4792 66.9288 32.9759L68.8204 35.873Z" fill="#004028"/>
<path d="M54.457 39.9345C55.0502 39.9345 55.5312 39.4535 55.5312 38.8603V37.1178C55.811 37.1165 56.0836 37.1156 56.2589 37.1156C57.878 37.1156 59.1952 35.8144 59.1952 34.215C59.1952 32.6155 57.878 31.3145 56.2589 31.3145H54.457C53.8695 31.3145 53.3828 31.7922 53.3828 32.3887V38.8603C53.3828 39.4536 53.8638 39.9345 54.457 39.9345ZM56.259 33.4629C56.6861 33.4629 57.0469 33.8073 57.0469 34.215C57.0469 34.6227 56.6861 34.9671 56.259 34.9671C56.085 34.9671 55.8157 34.9681 55.5381 34.9694C55.5347 34.1798 55.5369 34.4974 55.5345 33.463H56.259V33.4629Z" fill="#004028"/>
<path d="M46.4785 39.9345C47.0718 39.9345 47.5527 39.4535 47.5527 38.8603V37.1178C47.8326 37.1165 48.1052 37.1156 48.2805 37.1156C49.8996 37.1156 51.2168 35.8144 51.2168 34.215C51.2168 32.6155 49.8996 31.3145 48.2805 31.3145H46.4785C45.895 31.3145 45.4043 31.7885 45.4043 32.3887V38.8603C45.4043 39.4536 45.8852 39.9345 46.4785 39.9345ZM48.2805 33.4629C48.7076 33.4629 49.0683 33.8073 49.0683 34.215C49.0683 34.6227 48.7076 34.9671 48.2805 34.9671C48.1064 34.9671 47.8371 34.9681 47.5595 34.9694C47.5561 34.1798 47.5583 34.4974 47.5558 33.463H48.2805V33.4629Z" fill="#004028"/>
<path d="M72.297 56.1222H36.7031C36.1099 56.1222 35.6289 56.6032 35.6289 57.1964C35.6289 57.7896 36.1099 58.2706 36.7031 58.2706H72.297C72.8902 58.2706 73.3712 57.7896 73.3712 57.1964C73.3712 56.6031 72.8902 56.1222 72.297 56.1222Z" fill="#004028"/>
<path d="M77.6898 32.393H77.6854V28.0742C77.6854 27.481 77.2045 27 76.6112 27H32.3886C31.7953 27 31.3144 27.481 31.3144 28.0742V32.393H31.31C28.9335 32.393 27 34.3265 27 36.7029V67.9824C27 70.359 28.9335 72.2924 31.31 72.2924H48.4691L46.6518 79.8514H42.7339C42.1407 79.8514 41.6597 80.3324 41.6597 80.9256C41.6597 81.5187 42.1407 81.9998 42.7339 81.9998C47.3204 82 45.8832 82 66.2658 81.9998C66.8589 81.9998 67.34 81.5187 67.34 80.9256C67.34 80.3324 66.8589 79.8514 66.2658 79.8514H62.348L60.5306 72.2924H77.6898C80.0663 72.2924 81.9998 70.359 81.9998 67.9824V36.7029C81.9998 34.3265 80.0663 32.393 77.6898 32.393ZM33.4628 44.2488H75.537V60.4365H33.4628V44.2488ZM33.4628 29.1484H75.537V42.1003H33.4628V29.1484ZM31.31 34.5414H31.3144V61.5109C31.3144 62.104 31.7953 62.5851 32.3886 62.5851H76.6112C77.2045 62.5851 77.6854 62.104 77.6854 61.5109C77.6854 58.4237 77.6854 37.6747 77.6854 34.5414H77.6898C78.8818 34.5414 79.8514 35.511 79.8514 36.7029V64.751H29.1484V36.7029C29.1484 35.511 30.118 34.5414 31.31 34.5414ZM60.1383 79.8514H48.8613L50.6787 72.2924H58.3211L60.1383 79.8514ZM77.6898 70.144H31.31C30.118 70.144 29.1484 69.1743 29.1484 67.9824V66.8994H79.8514V67.9824C79.8514 69.1742 78.8817 70.144 77.6898 70.144Z" fill="#004028"/>
<path d="M72.297 46.4148H36.7031C36.1099 46.4148 35.6289 46.8957 35.6289 47.489V52.882C35.6289 53.4752 36.1099 53.9562 36.7031 53.9562H72.297C72.8902 53.9562 73.3712 53.4752 73.3712 52.882V47.489C73.3712 46.8958 72.8902 46.4148 72.297 46.4148ZM71.2228 51.8079H37.7773V48.5633H71.2228V51.8079Z" fill="#004028"/>
</svg>
