<svg width="20" height="20" viewBox="0 0 20 20" fill="none" xmlns="http://www.w3.org/2000/svg">
<path d="M14.0166 1.66666H5.98327C4.20827 1.66666 2.7666 3.11666 2.7666 4.88332V16.625C2.7666 18.125 3.8416 18.7583 5.15827 18.0333L9.22493 15.775C9.65827 15.5333 10.3583 15.5333 10.7833 15.775L14.8499 18.0333C16.1666 18.7667 17.2416 18.1333 17.2416 16.625V4.88332C17.2333 3.11666 15.7916 1.66666 14.0166 1.66666ZM12.5083 8.12499C11.6999 8.41666 10.8499 8.56666 9.99994 8.56666C9.14994 8.56666 8.29993 8.41666 7.4916 8.12499C7.1666 8.00832 6.99994 7.64999 7.1166 7.32499C7.2416 6.99999 7.59994 6.83332 7.92494 6.94999C9.2666 7.43332 10.7416 7.43332 12.0833 6.94999C12.4083 6.83332 12.7666 6.99999 12.8833 7.32499C12.9999 7.64999 12.8333 8.00832 12.5083 8.12499Z" fill="#004028"/>
</svg>
