<svg width="20" height="19" viewBox="0 0 20 19" fill="none" xmlns="http://www.w3.org/2000/svg">
<path d="M14.9795 13.9627L14.1477 13.1309L13.3159 13.9627L14.9795 15.6263L17.475 13.1309L16.6431 12.2991L14.9795 13.9627Z" fill="white"/>
<path d="M15.8757 8.94862C15.9705 6.72898 15.1439 4.59082 13.557 3.0039C10.4538 -0.0992687 5.43105 -0.0996217 2.32753 3.0039C-0.775685 6.10707 -0.775999 11.1298 2.32753 14.2334C4.72907 16.635 8.25487 17.1632 11.1666 15.8749C11.9669 17.333 13.5171 18.3236 15.2945 18.3236C17.8891 18.3236 20 16.2127 20 13.6182C20 11.2203 18.1971 9.23585 15.8757 8.94862ZM3.15933 3.83571C4.4369 2.55814 6.1355 1.85455 7.94227 1.85455C11.8397 1.85455 14.89 5.12065 14.6986 8.95035C13.028 9.16241 11.6564 10.2403 11.0051 11.6792C10.6777 11.3756 10.3087 11.1243 9.91045 10.9314C10.565 10.3736 10.9813 9.54402 10.9813 8.61865C10.9813 6.943 9.61797 5.57971 7.94231 5.57971C6.26666 5.57971 4.90337 6.943 4.90337 8.61865C4.90337 9.54492 5.32043 10.3752 5.97606 10.9331C4.82028 11.4954 3.93934 12.5373 3.59322 13.7983C0.564861 11.2626 0.342214 6.65283 3.15933 3.83571ZM6.0797 8.61865C6.0797 7.59164 6.91527 6.75607 7.94227 6.75607C8.96928 6.75607 9.80485 7.59164 9.80485 8.61865C9.80485 9.64566 8.96928 10.4812 7.94227 10.4812C6.91527 10.4812 6.0797 9.64566 6.0797 8.61865ZM10.7341 14.7811C8.76949 15.669 6.49346 15.5458 4.64316 14.5192C4.87294 12.9039 6.2645 11.6576 7.94227 11.6576C9.01084 11.6576 9.99934 12.1614 10.6274 13.0154C10.5516 13.6111 10.5898 14.2146 10.7341 14.7811ZM15.2946 17.1473C13.3212 17.1473 11.7169 15.5174 11.7666 13.5283C11.8144 11.6477 13.3582 10.1136 15.2491 10.0898L15.2975 10.0891C17.2421 10.0908 18.8236 11.6732 18.8236 13.6182C18.8236 15.5641 17.2405 17.1473 15.2946 17.1473Z" fill="white"/>
</svg>
