<svg width="160" height="160" viewBox="0 0 160 160" fill="none" xmlns="http://www.w3.org/2000/svg">
    <path
        d="M135.874 94.2475L101.449 58.5509L69.4277 25.3418C69.4277 25.3418 51.9559 62.354 41.5966 66.1102L25.3718 100.494C25.3718 100.494 25.353 100.535 25.3155 100.616C25.2968 100.657 25.2749 100.704 25.2468 100.763C23.9061 103.716 12.225 130.11 18.3937 141.607C21.0718 146.597 27.1155 148.781 38.831 145.016L61.4215 134.797C61.4215 134.797 81.8807 115.047 95.7775 119.257L134.43 101.772C135.818 101.144 136.815 99.8787 137.102 98.3819C137.39 96.885 136.93 95.3444 135.874 94.2475Z"
        fill="#78D5DD" />
    <path
        d="M137.103 98.3817C136.815 99.8786 135.819 101.144 134.431 101.772L95.7783 119.257C81.8815 115.047 61.4223 134.797 61.4223 134.797L38.8319 145.016C27.1163 148.781 21.0726 146.597 18.3945 141.606L101.45 58.5508L135.875 94.2474C136.931 95.3442 137.39 96.8849 137.103 98.3817Z"
        fill="#63AFC9" />
    <path
        d="M33.2972 126.703L25.3723 100.494L0.447463 153.312C-0.39003 155.087 -0.0306583 157.2 1.34746 158.6C1.35683 158.609 1.36621 158.619 1.37558 158.625C2.27245 159.525 3.47244 160 4.68806 160C5.34117 160 6.00054 159.862 6.61929 159.584L38.8315 145.016L33.2972 126.703Z"
        fill="#EDFFFF" />
    <path
        d="M38.8313 145.016L6.61875 159.584C6 159.862 5.34063 160 4.6875 160C3.47188 160 2.27188 159.525 1.375 158.625L33.2969 126.703L38.8313 145.016Z"
        fill="#E0F2FE" />
    <path
        d="M83.7192 76.2815L69.4287 25.3413L68.3756 24.2476C67.3068 23.1382 65.76 22.6257 64.2381 22.8757C62.7194 23.1257 61.4194 24.1069 60.76 25.5007L41.5977 66.1097L53.3101 106.691L61.4225 134.797L95.7785 119.256L83.7192 76.2815Z"
        fill="#EDFFFF" />
    <path d="M95.779 119.256L61.423 134.796L53.3105 106.69L83.7197 76.2812L95.779 119.256Z"
        fill="#E0F2FE" />
    <path
        d="M127.503 69.6896C125.783 69.6896 124.128 68.7399 123.306 67.0974C122.149 64.7818 123.087 61.9665 125.403 60.8084L127.124 59.9477C136.862 55.0784 148.284 55.4559 157.68 60.9556C159.914 62.2634 160.665 65.1349 159.357 67.369C158.049 69.6037 155.177 70.3537 152.943 69.0465C146.294 65.1537 138.209 64.8868 131.316 68.3331L129.595 69.1937C128.922 69.5302 128.207 69.6896 127.503 69.6896Z"
        fill="#9B79DB" />
    <path
        d="M147.505 44.6885C144.917 44.6885 142.816 42.5897 142.816 40.001C142.816 37.4122 144.914 35.3135 147.502 35.3135H147.505C150.095 35.3135 152.193 37.4122 152.193 40.001C152.193 42.5897 150.095 44.6885 147.505 44.6885Z"
        fill="#FFD322" />
    <path
        d="M119.693 45.001C119.693 47.5885 117.593 49.6885 115.005 49.6885C113.711 49.6885 112.539 49.1635 111.689 48.3135V48.3104C110.839 47.4635 110.314 46.2947 110.314 45.001C110.314 42.4135 112.414 40.3135 115.002 40.3135H115.005C116.299 40.3135 117.468 40.8385 118.314 41.6854C119.168 42.5322 119.693 43.7072 119.693 45.001Z"
        fill="#F27BB5" />
    <path
        d="M119.693 45.0002C119.693 47.5877 117.593 49.6877 115.005 49.6877C113.711 49.6877 112.539 49.1627 111.689 48.3127V48.3096L118.314 41.6846C119.168 42.5314 119.693 43.7064 119.693 45.0002Z"
        fill="#EC3C93" />
    <path
        d="M94.9952 37.1898C94.2909 37.1898 93.5756 37.0304 92.9028 36.6939C90.5871 35.5361 89.6487 32.7204 90.8065 30.4048L91.6671 28.6836C95.1131 21.7914 94.8465 13.7067 90.9537 7.05638C89.6459 4.82231 90.3968 1.95075 92.6309 0.64294C94.8646 -0.664872 97.7365 0.0857526 99.0443 2.32044C104.544 11.7161 104.921 23.1389 100.052 32.8761L99.1915 34.597C98.3702 36.2401 96.7146 37.1898 94.9952 37.1898Z"
        fill="#FFE377" />
    <path
        d="M120.005 17.1885C117.417 17.1885 115.316 15.0897 115.316 12.501C115.316 9.91223 117.414 7.81348 120.002 7.81348H120.005C122.595 7.81348 124.693 9.91223 124.693 12.501C124.693 15.0897 122.595 17.1885 120.005 17.1885Z"
        fill="#FFE3C1" />
    <path
        d="M160 4.68848V5.00098C160 13.101 153.413 19.6885 145.312 19.6885H145C142.072 19.6885 139.688 22.0729 139.688 25.001C139.688 27.5885 137.588 29.6885 135 29.6885C133.706 29.6885 132.534 29.1635 131.687 28.3135C130.837 27.4666 130.312 26.2947 130.312 25.001C130.312 16.901 136.9 10.3135 145 10.3135H145.312C148.241 10.3135 150.625 7.9291 150.625 5.00098V4.68848C150.625 2.10098 152.725 0.000976562 155.312 0.000976562C156.606 0.000976562 157.778 0.525977 158.625 1.37598C159.475 2.22285 160 3.39473 160 4.68848Z"
        fill="#F27BB5" />
    <path
        d="M160 4.68848V5.00098C160 13.101 153.413 19.6885 145.313 19.6885H145C142.072 19.6885 139.688 22.0729 139.688 25.001C139.688 27.5885 137.588 29.6885 135 29.6885C133.706 29.6885 132.534 29.1635 131.688 28.3135L158.625 1.37598C159.475 2.22285 160 3.39473 160 4.68848Z"
        fill="#EC3C93" />
</svg>
    