<svg width="20" height="21" viewBox="0 0 20 21" fill="none" xmlns="http://www.w3.org/2000/svg">
<g clip-path="url(#clip0_1275_3782)">
<path d="M19.4139 19.3281H18.7889V9.36744C18.7889 9.11521 18.6275 8.89134 18.3883 8.81158L11.7578 6.60142V4.60193C11.7578 4.35767 11.6063 4.13904 11.3776 4.0533L2.00286 0.53775C1.62021 0.394274 1.21118 0.677594 1.21118 1.08638V19.3282H0.586182C0.262588 19.3282 0.000244141 19.5905 0.000244141 19.9141C0.000244141 20.2377 0.262588 20.5001 0.586182 20.5001C0.717783 20.5001 19.16 20.5001 19.4139 20.5001C19.7375 20.5001 19.9999 20.2377 19.9999 19.9141C19.9999 19.5905 19.7375 19.3281 19.4139 19.3281ZM5.89856 19.3281H4.72673V16.9844H5.89856V19.3281ZM8.24228 19.3281H7.07044V16.9844H8.24228V19.3281ZM10.586 7.02373V19.3281H9.41415V16.3985C9.41415 16.0749 9.15181 15.8126 8.82821 15.8126H4.14079C3.8172 15.8126 3.55485 16.0749 3.55485 16.3985V19.3281H2.38302V1.93185L10.586 5.00795V7.02373ZM15.2734 19.3281H14.1015V16.9844H15.2734V19.3281ZM17.6171 19.3281H16.4452V16.3985C16.4452 16.0749 16.1829 15.8126 15.8593 15.8126H13.5156C13.192 15.8126 12.9297 16.0749 12.9297 16.3985V19.3281H11.7578V7.83666L17.6171 9.78974V19.3281Z" fill="black"/>
<path d="M5.31271 13.4689H4.14087C3.81728 13.4689 3.55493 13.7312 3.55493 14.0548C3.55493 14.3784 3.81724 14.6407 4.14087 14.6407H5.31271C5.6363 14.6407 5.89864 14.3784 5.89864 14.0548C5.89864 13.7312 5.6363 13.4689 5.31271 13.4689Z" fill="black"/>
<path d="M8.82809 13.4689H7.65625C7.33266 13.4689 7.07031 13.7312 7.07031 14.0548C7.07031 14.3784 7.33262 14.6407 7.65625 14.6407H8.82809C9.15168 14.6407 9.41402 14.3784 9.41402 14.0548C9.41402 13.7312 9.15168 13.4689 8.82809 13.4689Z" fill="black"/>
<path d="M5.31271 11.1252H4.14087C3.81728 11.1252 3.55493 11.3876 3.55493 11.7112C3.55493 12.0348 3.81724 12.2971 4.14087 12.2971H5.31271C5.6363 12.2971 5.89864 12.0348 5.89864 11.7112C5.89864 11.3876 5.6363 11.1252 5.31271 11.1252Z" fill="black"/>
<path d="M8.82809 11.1252H7.65625C7.33266 11.1252 7.07031 11.3876 7.07031 11.7112C7.07031 12.0348 7.33262 12.2971 7.65625 12.2971H8.82809C9.15168 12.2971 9.41402 12.0348 9.41402 11.7112C9.41402 11.3876 9.15168 11.1252 8.82809 11.1252Z" fill="black"/>
<path d="M15.8593 13.4689H13.5156C13.192 13.4689 12.9297 13.7312 12.9297 14.0548C12.9297 14.3784 13.192 14.6407 13.5156 14.6407H15.8593C16.1829 14.6407 16.4453 14.3784 16.4453 14.0548C16.4453 13.7312 16.1829 13.4689 15.8593 13.4689Z" fill="black"/>
<path d="M15.8593 11.1252H13.5156C13.192 11.1252 12.9297 11.3876 12.9297 11.7112C12.9297 12.0348 13.192 12.2971 13.5156 12.2971H15.8593C16.1829 12.2971 16.4453 12.0348 16.4453 11.7112C16.4453 11.3876 16.1829 11.1252 15.8593 11.1252Z" fill="black"/>
<path d="M5.31271 8.78149H4.14087C3.81728 8.78149 3.55493 9.04384 3.55493 9.36743C3.55493 9.69103 3.81724 9.95337 4.14087 9.95337H5.31271C5.6363 9.95337 5.89864 9.69103 5.89864 9.36743C5.8986 9.04384 5.6363 8.78149 5.31271 8.78149Z" fill="black"/>
<path d="M8.82809 8.78149H7.65625C7.33266 8.78149 7.07031 9.04384 7.07031 9.36743C7.07031 9.69103 7.33262 9.95337 7.65625 9.95337H8.82809C9.15168 9.95337 9.41402 9.69103 9.41402 9.36743C9.41402 9.04384 9.15168 8.78149 8.82809 8.78149Z" fill="black"/>
<path d="M5.31271 6.43774H4.14087C3.81728 6.43774 3.55493 6.70009 3.55493 7.02368C3.55493 7.34728 3.81724 7.60962 4.14087 7.60962H5.31271C5.6363 7.60962 5.89864 7.34728 5.89864 7.02368C5.8986 6.70009 5.6363 6.43774 5.31271 6.43774Z" fill="black"/>
<path d="M8.82809 6.43774H7.65625C7.33266 6.43774 7.07031 6.70009 7.07031 7.02368C7.07031 7.34728 7.33262 7.60962 7.65625 7.60962H8.82809C9.15168 7.60962 9.41402 7.34728 9.41402 7.02368C9.41402 6.70009 9.15168 6.43774 8.82809 6.43774Z" fill="black"/>
</g>
<defs>
<clipPath id="clip0_1275_3782">
<rect width="20" height="20" fill="white" transform="translate(0 0.5)"/>
</clipPath>
</defs>
</svg>
