<svg width="64" height="64" viewBox="0 0 64 64" fill="none" xmlns="http://www.w3.org/2000/svg">
<rect width="64" height="63.0938" rx="5" fill="#FAFAFA" fill-opacity="0.2"/>
<path d="M43.3013 23.8127C43.2998 23.8127 43.2983 23.8125 43.2969 23.8125H36.9219V23.1094C36.9219 21.9463 35.9756 21 34.8125 21H29.1875C28.0244 21 27.0781 21.9463 27.0781 23.1094V23.8125H20.7031C20.3116 23.8125 20 24.1333 20 24.5156V39.9844C20 41.1475 20.9463 42.0938 22.1094 42.0938H41.8906C43.0537 42.0938 44 41.1475 44 39.9844V24.5305C44 24.5295 44 24.5286 44 24.5277C43.9731 24.0659 43.6891 23.8152 43.3013 23.8127ZM28.4844 23.1094C28.4844 22.7217 28.7999 22.4062 29.1875 22.4062H34.8125C35.2001 22.4062 35.5156 22.7217 35.5156 23.1094V23.8125H28.4844V23.1094ZM42.3213 25.2188L40.1378 31.7692C40.042 32.0568 39.7739 32.25 39.4709 32.25H35.5156V31.5469C35.5156 31.1585 35.2009 30.8438 34.8125 30.8438H29.1875C28.7991 30.8438 28.4844 31.1585 28.4844 31.5469V32.25H24.5291C24.2261 32.25 23.958 32.0568 23.8622 31.7692L21.6787 25.2188H42.3213ZM34.1094 32.25V33.6562H29.8906V32.25H34.1094ZM42.5938 39.9844C42.5938 40.372 42.2783 40.6875 41.8906 40.6875H22.1094C21.7217 40.6875 21.4062 40.372 21.4062 39.9844V28.8484L22.5281 32.2139C22.8156 33.0767 23.6198 33.6562 24.5291 33.6562H28.4844V34.3594C28.4844 34.7477 28.7991 35.0625 29.1875 35.0625H34.8125C35.2009 35.0625 35.5156 34.7477 35.5156 34.3594V33.6562H39.4709C40.3802 33.6562 41.1844 33.0767 41.4719 32.2139L42.5938 28.8484V39.9844Z" fill="white"/>
</svg>
