<svg width="109" height="109" viewBox="0 0 109 109" fill="none" xmlns="http://www.w3.org/2000/svg">
<circle cx="54.5" cy="54.5" r="53.5" fill="white" stroke="#004028" stroke-width="2"/>
<path d="M35.1641 60.4082H55.5741C56.464 60.4082 57.1854 59.6868 57.1854 58.7969V43.7578C57.1854 42.8679 56.464 42.1465 55.5741 42.1465H35.1641C34.2742 42.1465 33.5527 42.8679 33.5527 43.7578V58.7969C33.5527 59.6868 34.2741 60.4082 35.1641 60.4082ZM39.0541 57.1855L41.6094 54.6303L44.1645 57.1855H39.0541ZM48.722 57.1855L47.1129 55.5765L49.1288 52.8887L52.3515 57.1855H48.722ZM36.7754 45.3691H53.9628V53.9629L50.4179 49.2363C50.1135 48.8306 49.636 48.5918 49.1288 48.5918C48.6216 48.5918 48.1441 48.8306 47.8397 49.2363L44.8111 53.2746L42.7487 51.2122C42.1195 50.583 41.0992 50.583 40.47 51.2122L36.7754 54.9068V45.3691Z" fill="#004028"/>
<path d="M79.5823 35.2285C77.4919 34.0216 74.8752 34.5537 73.406 36.3755V32.9082C73.406 29.6504 70.7556 27 67.4978 27H32.9082C29.6504 27 27 29.6504 27 32.9082V76.0918C27 79.3496 29.6504 82 32.9082 82H67.4978C70.7556 82 73.406 79.3496 73.406 76.0918V55.5939L81.3516 41.8317C82.6864 39.5197 81.8943 36.5633 79.5823 35.2285ZM62.6638 30.2227H67.4978C68.9786 30.2227 70.1834 31.4274 70.1834 32.9082V35.5938H62.6638V30.2227ZM30.2227 32.9082C30.2227 31.4274 31.4274 30.2227 32.9082 30.2227H59.4413V35.5938H30.2227V32.9082ZM70.1834 76.0918C70.1834 77.575 68.981 78.7773 67.4978 78.7773H32.9082C31.425 78.7773 30.2227 77.575 30.2227 76.0918V38.8164H70.1834V41.8399L57.94 63.0462C57.8566 63.1905 57.7961 63.3469 57.7608 63.5098L57.5013 64.7051H35.2095C34.3419 64.7051 33.5953 65.3718 33.5545 66.2385C33.5109 67.1639 34.2483 67.9277 35.1641 67.9277H56.8013L55.868 72.2246H35.2095C34.3419 72.2246 33.5953 72.8914 33.5546 73.7581C33.5109 74.6834 34.2483 75.4473 35.1641 75.4473H57.2923C57.6862 75.4473 58.0666 75.3029 58.3614 75.0415L65.9863 68.2801C66.1158 68.1651 66.2261 68.0301 66.3126 67.8801L70.1835 61.1756V76.0918H70.1834ZM60.4415 66.3511L62.1754 67.3522L59.7586 69.4953L60.4415 66.3511ZM64.3273 64.8734L61.5365 63.2621L70.1302 48.3773L72.921 49.9886L64.3273 64.8734ZM74.5324 47.1977L71.7415 45.5863L73.3529 42.7954L76.1437 44.4067L74.5324 47.1977ZM78.5607 40.2204L77.755 41.6159L74.9642 40.0046L75.7699 38.6091C76.2148 37.8384 77.2003 37.5744 77.9709 38.0193C78.7416 38.4643 79.0056 39.4498 78.5607 40.2204Z" fill="#004028"/>
</svg>
