<svg width="753" height="80" viewBox="0 0 753 80" fill="none" xmlns="http://www.w3.org/2000/svg">
<rect width="753" height="80" rx="10" fill="#F2F2E9"/>
<g clip-path="url(#clip0_1159_2585)">
<path d="M270 40.75C271.657 40.75 273 39.4069 273 37.75C273 36.0931 271.657 34.75 270 34.75C268.343 34.75 267 36.0931 267 37.75C267 39.4069 268.343 40.75 270 40.75Z" stroke="#A49775" stroke-width="2" stroke-linecap="round" stroke-linejoin="round"/>
<path d="M277.5 37.75C277.5 44.5 270 49.75 270 49.75C270 49.75 262.5 44.5 262.5 37.75C262.5 35.7609 263.29 33.8532 264.697 32.4467C266.103 31.0402 268.011 30.25 270 30.25C271.989 30.25 273.897 31.0402 275.303 32.4467C276.71 33.8532 277.5 35.7609 277.5 37.75V37.75Z" stroke="#A49775" stroke-width="2" stroke-linecap="round" stroke-linejoin="round"/>
</g>
<path d="M304.773 35H303.364C303.28 34.5947 303.134 34.2386 302.926 33.9318C302.722 33.625 302.472 33.3674 302.176 33.1591C301.884 32.947 301.561 32.7879 301.205 32.6818C300.848 32.5758 300.477 32.5227 300.091 32.5227C299.386 32.5227 298.748 32.7008 298.176 33.0568C297.608 33.4129 297.155 33.9375 296.818 34.6307C296.485 35.3239 296.318 36.1742 296.318 37.1818C296.318 38.1894 296.485 39.0398 296.818 39.733C297.155 40.4261 297.608 40.9508 298.176 41.3068C298.748 41.6629 299.386 41.8409 300.091 41.8409C300.477 41.8409 300.848 41.7879 301.205 41.6818C301.561 41.5758 301.884 41.4186 302.176 41.2102C302.472 40.9981 302.722 40.7386 302.926 40.4318C303.134 40.1212 303.28 39.7652 303.364 39.3636H304.773C304.667 39.9583 304.473 40.4905 304.193 40.9602C303.913 41.4299 303.564 41.8295 303.148 42.1591C302.731 42.4848 302.263 42.733 301.744 42.9034C301.229 43.0739 300.678 43.1591 300.091 43.1591C299.098 43.1591 298.216 42.9167 297.443 42.4318C296.67 41.947 296.063 41.2576 295.619 40.3636C295.176 39.4697 294.955 38.4091 294.955 37.1818C294.955 35.9545 295.176 34.8939 295.619 34C296.063 33.1061 296.67 32.4167 297.443 31.9318C298.216 31.447 299.098 31.2045 300.091 31.2045C300.678 31.2045 301.229 31.2898 301.744 31.4602C302.263 31.6307 302.731 31.8807 303.148 32.2102C303.564 32.536 303.913 32.9337 304.193 33.4034C304.473 33.8693 304.667 34.4015 304.773 35ZM306.868 43V34.2727H308.209V43H306.868ZM307.55 32.8182C307.288 32.8182 307.063 32.7292 306.874 32.5511C306.688 32.3731 306.595 32.1591 306.595 31.9091C306.595 31.6591 306.688 31.4451 306.874 31.267C307.063 31.089 307.288 31 307.55 31C307.811 31 308.035 31.089 308.22 31.267C308.41 31.4451 308.504 31.6591 308.504 31.9091C308.504 32.1591 308.41 32.3731 308.22 32.5511C308.035 32.7292 307.811 32.8182 307.55 32.8182ZM314.46 34.2727V35.4091H309.938V34.2727H314.46ZM311.256 32.1818H312.597V40.5C312.597 40.8788 312.652 41.1629 312.761 41.3523C312.875 41.5379 313.019 41.6629 313.193 41.7273C313.371 41.7879 313.559 41.8182 313.756 41.8182C313.903 41.8182 314.025 41.8106 314.119 41.7955C314.214 41.7765 314.29 41.7614 314.347 41.75L314.619 42.9545C314.528 42.9886 314.402 43.0227 314.239 43.0568C314.076 43.0947 313.869 43.1136 313.619 43.1136C313.241 43.1136 312.869 43.0322 312.506 42.8693C312.146 42.7064 311.847 42.4583 311.608 42.125C311.373 41.7917 311.256 41.3712 311.256 40.8636V32.1818ZM317.341 46.2727C317.114 46.2727 316.911 46.2538 316.733 46.2159C316.555 46.1818 316.432 46.1477 316.364 46.1136L316.705 44.9318C317.03 45.0152 317.318 45.0455 317.568 45.0227C317.818 45 318.04 44.8883 318.233 44.6875C318.43 44.4905 318.61 44.1705 318.773 43.7273L319.023 43.0455L315.795 34.2727H317.25L319.659 41.2273H319.75L322.159 34.2727H323.614L319.909 44.2727C319.742 44.7235 319.536 45.0966 319.29 45.392C319.044 45.6913 318.758 45.9129 318.432 46.0568C318.11 46.2008 317.746 46.2727 317.341 46.2727ZM333.429 43.1818C332.641 43.1818 331.95 42.9943 331.355 42.6193C330.764 42.2443 330.302 41.7197 329.969 41.0455C329.639 40.3712 329.474 39.5833 329.474 38.6818C329.474 37.7727 329.639 36.9792 329.969 36.3011C330.302 35.6231 330.764 35.0966 331.355 34.7216C331.95 34.3466 332.641 34.1591 333.429 34.1591C334.217 34.1591 334.906 34.3466 335.497 34.7216C336.092 35.0966 336.554 35.6231 336.884 36.3011C337.217 36.9792 337.384 37.7727 337.384 38.6818C337.384 39.5833 337.217 40.3712 336.884 41.0455C336.554 41.7197 336.092 42.2443 335.497 42.6193C334.906 42.9943 334.217 43.1818 333.429 43.1818ZM333.429 41.9773C334.027 41.9773 334.52 41.8239 334.906 41.517C335.293 41.2102 335.579 40.8068 335.764 40.3068C335.95 39.8068 336.043 39.2652 336.043 38.6818C336.043 38.0985 335.95 37.5549 335.764 37.0511C335.579 36.5473 335.293 36.1402 334.906 35.8295C334.52 35.5189 334.027 35.3636 333.429 35.3636C332.83 35.3636 332.338 35.5189 331.952 35.8295C331.565 36.1402 331.279 36.5473 331.094 37.0511C330.908 37.5549 330.815 38.0985 330.815 38.6818C330.815 39.2652 330.908 39.8068 331.094 40.3068C331.279 40.8068 331.565 41.2102 331.952 41.517C332.338 41.8239 332.83 41.9773 333.429 41.9773ZM339.43 43V34.2727H340.726V35.5909H340.817C340.976 35.1591 341.264 34.8087 341.68 34.5398C342.097 34.2708 342.567 34.1364 343.089 34.1364C343.188 34.1364 343.311 34.1383 343.459 34.142C343.607 34.1458 343.718 34.1515 343.794 34.1591V35.5227C343.749 35.5114 343.644 35.4943 343.482 35.4716C343.322 35.4451 343.154 35.4318 342.976 35.4318C342.552 35.4318 342.173 35.5208 341.839 35.6989C341.51 35.8731 341.249 36.1155 341.055 36.4261C340.866 36.733 340.771 37.0833 340.771 37.4773V43H339.43ZM349.634 43V41.9773L354.588 35.6136V35.5227H349.793V34.2727H356.315V35.3409L351.497 41.6591V41.75H356.474V43H349.634ZM358.54 43V34.2727H359.881V43H358.54ZM359.222 32.8182C358.96 32.8182 358.735 32.7292 358.545 32.5511C358.36 32.3731 358.267 32.1591 358.267 31.9091C358.267 31.6591 358.36 31.4451 358.545 31.267C358.735 31.089 358.96 31 359.222 31C359.483 31 359.706 31.089 359.892 31.267C360.081 31.4451 360.176 31.6591 360.176 31.9091C360.176 32.1591 360.081 32.3731 359.892 32.5511C359.706 32.7292 359.483 32.8182 359.222 32.8182ZM362.337 46.2727V34.2727H363.632V35.6591H363.791C363.89 35.5076 364.026 35.3144 364.2 35.0795C364.378 34.8409 364.632 34.6288 364.962 34.4432C365.295 34.2538 365.746 34.1591 366.314 34.1591C367.049 34.1591 367.696 34.3428 368.257 34.7102C368.818 35.0777 369.255 35.5985 369.57 36.2727C369.884 36.947 370.041 37.7424 370.041 38.6591C370.041 39.5833 369.884 40.3845 369.57 41.0625C369.255 41.7367 368.82 42.2595 368.263 42.6307C367.706 42.9981 367.064 43.1818 366.337 43.1818C365.776 43.1818 365.327 43.089 364.99 42.9034C364.653 42.714 364.393 42.5 364.212 42.2614C364.03 42.0189 363.89 41.8182 363.791 41.6591H363.678V46.2727H362.337ZM363.655 38.6364C363.655 39.2955 363.751 39.8769 363.945 40.3807C364.138 40.8807 364.42 41.2727 364.791 41.5568C365.162 41.8371 365.617 41.9773 366.155 41.9773C366.715 41.9773 367.183 41.8295 367.558 41.5341C367.937 41.2348 368.221 40.8333 368.411 40.3295C368.604 39.822 368.7 39.2576 368.7 38.6364C368.7 38.0227 368.606 37.4697 368.416 36.9773C368.231 36.4811 367.948 36.089 367.57 35.8011C367.195 35.5095 366.723 35.3636 366.155 35.3636C365.609 35.3636 365.151 35.5019 364.78 35.7784C364.409 36.0511 364.128 36.4337 363.939 36.9261C363.75 37.4148 363.655 37.9848 363.655 38.6364ZM380.132 43.1818C379.314 43.1818 378.609 42.9886 378.018 42.6023C377.428 42.2159 376.973 41.6837 376.655 41.0057C376.337 40.3277 376.178 39.553 376.178 38.6818C376.178 37.7955 376.34 37.0133 376.666 36.3352C376.996 35.6534 377.454 35.1212 378.041 34.7386C378.632 34.3523 379.321 34.1591 380.109 34.1591C380.723 34.1591 381.276 34.2727 381.768 34.5C382.261 34.7273 382.664 35.0455 382.979 35.4545C383.293 35.8636 383.488 36.3409 383.564 36.8864H382.223C382.121 36.4886 381.893 36.1364 381.541 35.8295C381.193 35.5189 380.723 35.3636 380.132 35.3636C379.609 35.3636 379.151 35.5 378.757 35.7727C378.367 36.0417 378.062 36.4223 377.842 36.9148C377.626 37.4034 377.518 37.9773 377.518 38.6364C377.518 39.3106 377.625 39.8977 377.837 40.3977C378.053 40.8977 378.356 41.286 378.746 41.5625C379.14 41.839 379.602 41.9773 380.132 41.9773C380.481 41.9773 380.797 41.9167 381.081 41.7955C381.365 41.6742 381.606 41.5 381.803 41.2727C382 41.0455 382.14 40.7727 382.223 40.4545H383.564C383.488 40.9697 383.301 41.4337 383.001 41.8466C382.706 42.2557 382.314 42.5814 381.825 42.8239C381.34 43.0625 380.776 43.1818 380.132 43.1818ZM389.07 43.1818C388.282 43.1818 387.59 42.9943 386.996 42.6193C386.405 42.2443 385.943 41.7197 385.609 41.0455C385.28 40.3712 385.115 39.5833 385.115 38.6818C385.115 37.7727 385.28 36.9792 385.609 36.3011C385.943 35.6231 386.405 35.0966 386.996 34.7216C387.59 34.3466 388.282 34.1591 389.07 34.1591C389.857 34.1591 390.547 34.3466 391.138 34.7216C391.732 35.0966 392.195 35.6231 392.524 36.3011C392.857 36.9792 393.024 37.7727 393.024 38.6818C393.024 39.5833 392.857 40.3712 392.524 41.0455C392.195 41.7197 391.732 42.2443 391.138 42.6193C390.547 42.9943 389.857 43.1818 389.07 43.1818ZM389.07 41.9773C389.668 41.9773 390.161 41.8239 390.547 41.517C390.933 41.2102 391.219 40.8068 391.405 40.3068C391.59 39.8068 391.683 39.2652 391.683 38.6818C391.683 38.0985 391.59 37.5549 391.405 37.0511C391.219 36.5473 390.933 36.1402 390.547 35.8295C390.161 35.5189 389.668 35.3636 389.07 35.3636C388.471 35.3636 387.979 35.5189 387.592 35.8295C387.206 36.1402 386.92 36.5473 386.734 37.0511C386.549 37.5549 386.456 38.0985 386.456 38.6818C386.456 39.2652 386.549 39.8068 386.734 40.3068C386.92 40.8068 387.206 41.2102 387.592 41.517C387.979 41.8239 388.471 41.9773 389.07 41.9773ZM398.366 43.1818C397.639 43.1818 396.997 42.9981 396.44 42.6307C395.884 42.2595 395.448 41.7367 395.134 41.0625C394.819 40.3845 394.662 39.5833 394.662 38.6591C394.662 37.7424 394.819 36.947 395.134 36.2727C395.448 35.5985 395.885 35.0777 396.446 34.7102C397.007 34.3428 397.654 34.1591 398.389 34.1591C398.957 34.1591 399.406 34.2538 399.736 34.4432C400.069 34.6288 400.323 34.8409 400.497 35.0795C400.675 35.3144 400.813 35.5076 400.912 35.6591H401.026V31.3636H402.366V43H401.071V41.6591H400.912C400.813 41.8182 400.673 42.0189 400.491 42.2614C400.31 42.5 400.05 42.714 399.713 42.9034C399.376 43.089 398.927 43.1818 398.366 43.1818ZM398.548 41.9773C399.086 41.9773 399.541 41.8371 399.912 41.5568C400.283 41.2727 400.565 40.8807 400.759 40.3807C400.952 39.8769 401.048 39.2955 401.048 38.6364C401.048 37.9848 400.954 37.4148 400.764 36.9261C400.575 36.4337 400.295 36.0511 399.923 35.7784C399.552 35.5019 399.094 35.3636 398.548 35.3636C397.98 35.3636 397.507 35.5095 397.128 35.8011C396.753 36.089 396.471 36.4811 396.281 36.9773C396.096 37.4697 396.003 38.0227 396.003 38.6364C396.003 39.2576 396.098 39.822 396.287 40.3295C396.48 40.8333 396.764 41.2348 397.139 41.5341C397.518 41.8295 397.988 41.9773 398.548 41.9773ZM408.668 43.1818C407.827 43.1818 407.101 42.9962 406.491 42.625C405.885 42.25 405.418 41.7273 405.088 41.0568C404.762 40.3826 404.599 39.5985 404.599 38.7045C404.599 37.8106 404.762 37.0227 405.088 36.3409C405.418 35.6553 405.876 35.1212 406.463 34.7386C407.054 34.3523 407.743 34.1591 408.531 34.1591C408.986 34.1591 409.435 34.2348 409.878 34.3864C410.321 34.5379 410.724 34.7841 411.088 35.125C411.452 35.4621 411.741 35.9091 411.957 36.4659C412.173 37.0227 412.281 37.7083 412.281 38.5227V39.0909H405.554V37.9318H410.918C410.918 37.4394 410.819 37 410.622 36.6136C410.429 36.2273 410.152 35.9223 409.793 35.6989C409.437 35.4754 409.016 35.3636 408.531 35.3636C407.997 35.3636 407.535 35.4962 407.145 35.7614C406.759 36.0227 406.461 36.3636 406.253 36.7841C406.045 37.2045 405.94 37.6553 405.94 38.1364V38.9091C405.94 39.5682 406.054 40.1269 406.281 40.5852C406.512 41.0398 406.832 41.3864 407.241 41.625C407.651 41.8598 408.126 41.9773 408.668 41.9773C409.02 41.9773 409.338 41.928 409.622 41.8295C409.91 41.7273 410.158 41.5758 410.366 41.375C410.575 41.1705 410.736 40.9167 410.849 40.6136L412.145 40.9773C412.009 41.4167 411.779 41.803 411.457 42.1364C411.135 42.4659 410.738 42.7235 410.264 42.9091C409.791 43.0909 409.259 43.1818 408.668 43.1818Z" fill="#A49775"/>
<path d="M71.8636 31.3636H73.2727V39.6818C73.2727 40.4242 73.1364 41.0549 72.8636 41.5739C72.5909 42.0928 72.2064 42.4867 71.7102 42.7557C71.214 43.0246 70.6288 43.1591 69.9545 43.1591C69.3182 43.1591 68.7519 43.0436 68.2557 42.8125C67.7595 42.5777 67.3693 42.2443 67.0852 41.8125C66.8011 41.3807 66.6591 40.8674 66.6591 40.2727H68.0455C68.0455 40.6023 68.1269 40.8902 68.2898 41.1364C68.4564 41.3788 68.6837 41.5682 68.9716 41.7045C69.2595 41.8409 69.5871 41.9091 69.9545 41.9091C70.3598 41.9091 70.7045 41.8239 70.9886 41.6534C71.2727 41.483 71.4886 41.233 71.6364 40.9034C71.7879 40.5701 71.8636 40.1629 71.8636 39.6818V31.3636ZM79.4602 43.1818C78.6723 43.1818 77.9811 42.9943 77.3864 42.6193C76.7955 42.2443 76.3333 41.7197 76 41.0455C75.6705 40.3712 75.5057 39.5833 75.5057 38.6818C75.5057 37.7727 75.6705 36.9792 76 36.3011C76.3333 35.6231 76.7955 35.0966 77.3864 34.7216C77.9811 34.3466 78.6723 34.1591 79.4602 34.1591C80.2481 34.1591 80.9375 34.3466 81.5284 34.7216C82.1231 35.0966 82.5852 35.6231 82.9148 36.3011C83.2481 36.9792 83.4148 37.7727 83.4148 38.6818C83.4148 39.5833 83.2481 40.3712 82.9148 41.0455C82.5852 41.7197 82.1231 42.2443 81.5284 42.6193C80.9375 42.9943 80.2481 43.1818 79.4602 43.1818ZM79.4602 41.9773C80.0587 41.9773 80.5511 41.8239 80.9375 41.517C81.3239 41.2102 81.6098 40.8068 81.7955 40.3068C81.9811 39.8068 82.0739 39.2652 82.0739 38.6818C82.0739 38.0985 81.9811 37.5549 81.7955 37.0511C81.6098 36.5473 81.3239 36.1402 80.9375 35.8295C80.5511 35.5189 80.0587 35.3636 79.4602 35.3636C78.8617 35.3636 78.3693 35.5189 77.983 35.8295C77.5966 36.1402 77.3106 36.5473 77.125 37.0511C76.9394 37.5549 76.8466 38.0985 76.8466 38.6818C76.8466 39.2652 76.9394 39.8068 77.125 40.3068C77.3106 40.8068 77.5966 41.2102 77.983 41.517C78.3693 41.8239 78.8617 41.9773 79.4602 41.9773ZM85.6435 43V31.3636H86.9844V35.6591H87.098C87.1965 35.5076 87.3329 35.3144 87.5071 35.0795C87.6851 34.8409 87.9389 34.6288 88.2685 34.4432C88.6018 34.2538 89.0526 34.1591 89.6207 34.1591C90.3556 34.1591 91.0033 34.3428 91.5639 34.7102C92.1245 35.0777 92.562 35.5985 92.8764 36.2727C93.1908 36.947 93.348 37.7424 93.348 38.6591C93.348 39.5833 93.1908 40.3845 92.8764 41.0625C92.562 41.7367 92.1264 42.2595 91.5696 42.6307C91.0128 42.9981 90.3707 43.1818 89.6435 43.1818C89.0829 43.1818 88.634 43.089 88.2969 42.9034C87.9598 42.714 87.7003 42.5 87.5185 42.2614C87.3366 42.0189 87.1965 41.8182 87.098 41.6591H86.9389V43H85.6435ZM86.9616 38.6364C86.9616 39.2955 87.0582 39.8769 87.2514 40.3807C87.4446 40.8807 87.7268 41.2727 88.098 41.5568C88.4692 41.8371 88.9238 41.9773 89.4616 41.9773C90.0223 41.9773 90.4901 41.8295 90.8651 41.5341C91.2438 41.2348 91.5279 40.8333 91.7173 40.3295C91.9105 39.822 92.0071 39.2576 92.0071 38.6364C92.0071 38.0227 91.9124 37.4697 91.723 36.9773C91.5374 36.4811 91.2552 36.089 90.8764 35.8011C90.5014 35.5095 90.0298 35.3636 89.4616 35.3636C88.9162 35.3636 88.4579 35.5019 88.0866 35.7784C87.7154 36.0511 87.4351 36.4337 87.2457 36.9261C87.0563 37.4148 86.9616 37.9848 86.9616 38.6364ZM103.445 43.1818C102.657 43.1818 101.965 42.9943 101.371 42.6193C100.78 42.2443 100.318 41.7197 99.9844 41.0455C99.6548 40.3712 99.4901 39.5833 99.4901 38.6818C99.4901 37.7727 99.6548 36.9792 99.9844 36.3011C100.318 35.6231 100.78 35.0966 101.371 34.7216C101.965 34.3466 102.657 34.1591 103.445 34.1591C104.232 34.1591 104.922 34.3466 105.513 34.7216C106.107 35.0966 106.57 35.6231 106.899 36.3011C107.232 36.9792 107.399 37.7727 107.399 38.6818C107.399 39.5833 107.232 40.3712 106.899 41.0455C106.57 41.7197 106.107 42.2443 105.513 42.6193C104.922 42.9943 104.232 43.1818 103.445 43.1818ZM103.445 41.9773C104.043 41.9773 104.536 41.8239 104.922 41.517C105.308 41.2102 105.594 40.8068 105.78 40.3068C105.965 39.8068 106.058 39.2652 106.058 38.6818C106.058 38.0985 105.965 37.5549 105.78 37.0511C105.594 36.5473 105.308 36.1402 104.922 35.8295C104.536 35.5189 104.043 35.3636 103.445 35.3636C102.846 35.3636 102.354 35.5189 101.967 35.8295C101.581 36.1402 101.295 36.5473 101.109 37.0511C100.924 37.5549 100.831 38.0985 100.831 38.6818C100.831 39.2652 100.924 39.8068 101.109 40.3068C101.295 40.8068 101.581 41.2102 101.967 41.517C102.354 41.8239 102.846 41.9773 103.445 41.9773ZM109.446 43V34.2727H110.741V35.5909H110.832C110.991 35.1591 111.279 34.8087 111.696 34.5398C112.113 34.2708 112.582 34.1364 113.105 34.1364C113.204 34.1364 113.327 34.1383 113.474 34.142C113.622 34.1458 113.734 34.1515 113.81 34.1591V35.5227C113.764 35.5114 113.66 35.4943 113.497 35.4716C113.338 35.4451 113.17 35.4318 112.991 35.4318C112.567 35.4318 112.188 35.5208 111.855 35.6989C111.526 35.8731 111.264 36.1155 111.071 36.4261C110.882 36.733 110.787 37.0833 110.787 37.4773V43H109.446ZM121.149 39.8182L121.126 38.1591H121.399L125.217 34.2727H126.876L122.808 38.3864H122.695L121.149 39.8182ZM119.899 43V31.3636H121.24V43H119.899ZM125.445 43L122.036 38.6818L122.99 37.75L127.149 43H125.445ZM131.902 43.1818C131.061 43.1818 130.336 42.9962 129.726 42.625C129.12 42.25 128.652 41.7273 128.322 41.0568C127.997 40.3826 127.834 39.5985 127.834 38.7045C127.834 37.8106 127.997 37.0227 128.322 36.3409C128.652 35.6553 129.11 35.1212 129.697 34.7386C130.288 34.3523 130.978 34.1591 131.766 34.1591C132.22 34.1591 132.669 34.2348 133.112 34.3864C133.555 34.5379 133.959 34.7841 134.322 35.125C134.686 35.4621 134.976 35.9091 135.192 36.4659C135.408 37.0227 135.516 37.7083 135.516 38.5227V39.0909H128.788V37.9318H134.152C134.152 37.4394 134.054 37 133.857 36.6136C133.663 36.2273 133.387 35.9223 133.027 35.6989C132.671 35.4754 132.25 35.3636 131.766 35.3636C131.232 35.3636 130.769 35.4962 130.379 35.7614C129.993 36.0227 129.696 36.3636 129.487 36.7841C129.279 37.2045 129.175 37.6553 129.175 38.1364V38.9091C129.175 39.5682 129.288 40.1269 129.516 40.5852C129.747 41.0398 130.067 41.3864 130.476 41.625C130.885 41.8598 131.36 41.9773 131.902 41.9773C132.254 41.9773 132.572 41.928 132.857 41.8295C133.144 41.7273 133.393 41.5758 133.601 41.375C133.809 41.1705 133.97 40.9167 134.084 40.6136L135.379 40.9773C135.243 41.4167 135.014 41.803 134.692 42.1364C134.37 42.4659 133.972 42.7235 133.499 42.9091C133.025 43.0909 132.493 43.1818 131.902 43.1818ZM138.153 46.2727C137.926 46.2727 137.723 46.2538 137.545 46.2159C137.367 46.1818 137.244 46.1477 137.176 46.1136L137.517 44.9318C137.843 45.0152 138.131 45.0455 138.381 45.0227C138.631 45 138.852 44.8883 139.045 44.6875C139.242 44.4905 139.422 44.1705 139.585 43.7273L139.835 43.0455L136.608 34.2727H138.062L140.472 41.2273H140.562L142.972 34.2727H144.426L140.722 44.2727C140.555 44.7235 140.348 45.0966 140.102 45.392C139.856 45.6913 139.57 45.9129 139.244 46.0568C138.922 46.2008 138.559 46.2727 138.153 46.2727ZM148.173 43L145.514 34.2727H146.923L148.81 40.9545H148.901L150.764 34.2727H152.196L154.037 40.9318H154.128L156.014 34.2727H157.423L154.764 43H153.446L151.537 36.2955H151.401L149.491 43H148.173ZM162.445 43.1818C161.657 43.1818 160.965 42.9943 160.371 42.6193C159.78 42.2443 159.318 41.7197 158.984 41.0455C158.655 40.3712 158.49 39.5833 158.49 38.6818C158.49 37.7727 158.655 36.9792 158.984 36.3011C159.318 35.6231 159.78 35.0966 160.371 34.7216C160.965 34.3466 161.657 34.1591 162.445 34.1591C163.232 34.1591 163.922 34.3466 164.513 34.7216C165.107 35.0966 165.57 35.6231 165.899 36.3011C166.232 36.9792 166.399 37.7727 166.399 38.6818C166.399 39.5833 166.232 40.3712 165.899 41.0455C165.57 41.7197 165.107 42.2443 164.513 42.6193C163.922 42.9943 163.232 43.1818 162.445 43.1818ZM162.445 41.9773C163.043 41.9773 163.536 41.8239 163.922 41.517C164.308 41.2102 164.594 40.8068 164.78 40.3068C164.965 39.8068 165.058 39.2652 165.058 38.6818C165.058 38.0985 164.965 37.5549 164.78 37.0511C164.594 36.5473 164.308 36.1402 163.922 35.8295C163.536 35.5189 163.043 35.3636 162.445 35.3636C161.846 35.3636 161.354 35.5189 160.967 35.8295C160.581 36.1402 160.295 36.5473 160.109 37.0511C159.924 37.5549 159.831 38.0985 159.831 38.6818C159.831 39.2652 159.924 39.8068 160.109 40.3068C160.295 40.8068 160.581 41.2102 160.967 41.517C161.354 41.8239 161.846 41.9773 162.445 41.9773ZM168.446 43V34.2727H169.741V35.5909H169.832C169.991 35.1591 170.279 34.8087 170.696 34.5398C171.113 34.2708 171.582 34.1364 172.105 34.1364C172.204 34.1364 172.327 34.1383 172.474 34.142C172.622 34.1458 172.734 34.1515 172.81 34.1591V35.5227C172.764 35.5114 172.66 35.4943 172.497 35.4716C172.338 35.4451 172.17 35.4318 171.991 35.4318C171.567 35.4318 171.188 35.5208 170.855 35.6989C170.526 35.8731 170.264 36.1155 170.071 36.4261C169.882 36.733 169.787 37.0833 169.787 37.4773V43H168.446ZM177.429 43.1818C176.702 43.1818 176.06 42.9981 175.503 42.6307C174.946 42.2595 174.51 41.7367 174.196 41.0625C173.882 40.3845 173.724 39.5833 173.724 38.6591C173.724 37.7424 173.882 36.947 174.196 36.2727C174.51 35.5985 174.948 35.0777 175.509 34.7102C176.069 34.3428 176.717 34.1591 177.452 34.1591C178.02 34.1591 178.469 34.2538 178.798 34.4432C179.132 34.6288 179.385 34.8409 179.56 35.0795C179.738 35.3144 179.876 35.5076 179.974 35.6591H180.088V31.3636H181.429V43H180.134V41.6591H179.974C179.876 41.8182 179.736 42.0189 179.554 42.2614C179.372 42.5 179.113 42.714 178.776 42.9034C178.438 43.089 177.99 43.1818 177.429 43.1818ZM177.611 41.9773C178.149 41.9773 178.603 41.8371 178.974 41.5568C179.346 41.2727 179.628 40.8807 179.821 40.3807C180.014 39.8769 180.111 39.2955 180.111 38.6364C180.111 37.9848 180.016 37.4148 179.827 36.9261C179.637 36.4337 179.357 36.0511 178.986 35.7784C178.615 35.5019 178.156 35.3636 177.611 35.3636C177.043 35.3636 176.569 35.5095 176.19 35.8011C175.815 36.089 175.533 36.4811 175.344 36.9773C175.158 37.4697 175.065 38.0227 175.065 38.6364C175.065 39.2576 175.16 39.822 175.349 40.3295C175.543 40.8333 175.827 41.2348 176.202 41.5341C176.58 41.8295 177.05 41.9773 177.611 41.9773Z" fill="#A49775"/>
<g clip-path="url(#clip1_1159_2585)">
<path d="M40.875 46.75C45.2242 46.75 48.75 43.2242 48.75 38.875C48.75 34.5258 45.2242 31 40.875 31C36.5258 31 33 34.5258 33 38.875C33 43.2242 36.5258 46.75 40.875 46.75Z" stroke="#A49775" stroke-width="2" stroke-linecap="round" stroke-linejoin="round"/>
<path d="M46.4434 44.4438L50.9997 49.0001" stroke="#A49775" stroke-width="2" stroke-linecap="round" stroke-linejoin="round"/>
</g>
<rect x="596" y="12" width="145" height="56" rx="10" fill="#004028"/>
<path d="M649.125 36.9205C649.064 36.3826 648.814 35.9659 648.375 35.6705C647.936 35.3712 647.383 35.2216 646.716 35.2216C646.239 35.2216 645.826 35.2973 645.477 35.4489C645.129 35.5966 644.858 35.8011 644.665 36.0625C644.475 36.3201 644.381 36.6136 644.381 36.9432C644.381 37.2197 644.445 37.4583 644.574 37.6591C644.706 37.8598 644.879 38.0284 645.091 38.1648C645.307 38.2973 645.538 38.4091 645.784 38.5C646.03 38.5871 646.267 38.6591 646.494 38.7159L647.631 39.0114C648.002 39.1023 648.383 39.2254 648.773 39.3807C649.163 39.536 649.525 39.7405 649.858 39.9943C650.191 40.2481 650.46 40.5625 650.665 40.9375C650.873 41.3125 650.977 41.7614 650.977 42.2841C650.977 42.9432 650.807 43.5284 650.466 44.0398C650.129 44.5511 649.638 44.9545 648.994 45.25C648.354 45.5455 647.58 45.6932 646.67 45.6932C645.799 45.6932 645.045 45.5549 644.409 45.2784C643.773 45.0019 643.275 44.6098 642.915 44.1023C642.555 43.5909 642.356 42.9848 642.318 42.2841H644.08C644.114 42.7045 644.25 43.0549 644.489 43.3352C644.731 43.6117 645.04 43.8182 645.415 43.9545C645.794 44.0871 646.208 44.1534 646.659 44.1534C647.155 44.1534 647.597 44.0758 647.983 43.9205C648.373 43.7614 648.68 43.5417 648.903 43.2614C649.127 42.9773 649.239 42.6458 649.239 42.267C649.239 41.9223 649.14 41.6402 648.943 41.4205C648.75 41.2008 648.487 41.0189 648.153 40.875C647.824 40.7311 647.451 40.6042 647.034 40.4943L645.659 40.1193C644.727 39.8655 643.989 39.4924 643.443 39C642.902 38.5076 642.631 37.8561 642.631 37.0455C642.631 36.375 642.813 35.7898 643.176 35.2898C643.54 34.7898 644.032 34.4015 644.653 34.125C645.275 33.8447 645.975 33.7045 646.756 33.7045C647.544 33.7045 648.239 33.8428 648.841 34.1193C649.447 34.3958 649.924 34.7765 650.273 35.2614C650.621 35.7424 650.803 36.2955 650.818 36.9205H649.125ZM656.7 45.6761C655.84 45.6761 655.1 45.4924 654.479 45.125C653.861 44.7538 653.384 44.233 653.047 43.5625C652.714 42.8883 652.547 42.0985 652.547 41.1932C652.547 40.2992 652.714 39.5114 653.047 38.8295C653.384 38.1477 653.854 37.6155 654.456 37.233C655.062 36.8504 655.77 36.6591 656.581 36.6591C657.073 36.6591 657.551 36.7405 658.013 36.9034C658.475 37.0663 658.89 37.322 659.257 37.6705C659.625 38.0189 659.914 38.4716 660.126 39.0284C660.339 39.5814 660.445 40.2538 660.445 41.0455V41.6477H653.507V40.375H658.78C658.78 39.928 658.689 39.5322 658.507 39.1875C658.325 38.839 658.07 38.5644 657.74 38.3636C657.414 38.1629 657.032 38.0625 656.592 38.0625C656.115 38.0625 655.698 38.1799 655.342 38.4148C654.99 38.6458 654.717 38.9489 654.524 39.3239C654.335 39.6951 654.24 40.0985 654.24 40.5341V41.5284C654.24 42.1117 654.342 42.608 654.547 43.017C654.755 43.4261 655.045 43.7386 655.416 43.9545C655.787 44.1667 656.221 44.2727 656.717 44.2727C657.039 44.2727 657.333 44.2273 657.598 44.1364C657.863 44.0417 658.092 43.9015 658.286 43.7159C658.479 43.5303 658.626 43.3011 658.729 43.0284L660.337 43.3182C660.208 43.7917 659.977 44.2064 659.643 44.5625C659.314 44.9148 658.899 45.1894 658.399 45.3864C657.903 45.5795 657.337 45.6761 656.7 45.6761ZM664.869 45.6932C664.316 45.6932 663.816 45.5909 663.369 45.3864C662.922 45.178 662.568 44.8769 662.307 44.483C662.049 44.089 661.92 43.6061 661.92 43.0341C661.92 42.5417 662.015 42.1364 662.205 41.8182C662.394 41.5 662.65 41.2481 662.972 41.0625C663.294 40.8769 663.653 40.7367 664.051 40.642C664.449 40.5473 664.854 40.4754 665.267 40.4261C665.79 40.3655 666.214 40.3163 666.54 40.2784C666.866 40.2367 667.102 40.1705 667.25 40.0795C667.398 39.9886 667.472 39.8409 667.472 39.6364V39.5966C667.472 39.1004 667.331 38.7159 667.051 38.4432C666.775 38.1705 666.362 38.0341 665.812 38.0341C665.241 38.0341 664.79 38.161 664.46 38.4148C664.134 38.6648 663.909 38.9432 663.784 39.25L662.188 38.8864C662.377 38.3561 662.653 37.928 663.017 37.6023C663.384 37.2727 663.807 37.0341 664.284 36.8864C664.761 36.7348 665.263 36.6591 665.79 36.6591C666.138 36.6591 666.508 36.7008 666.898 36.7841C667.292 36.8636 667.659 37.0114 668 37.2273C668.345 37.4432 668.627 37.7519 668.847 38.1534C669.066 38.5511 669.176 39.0682 669.176 39.7045V45.5H667.517V44.3068H667.449C667.339 44.5265 667.174 44.7424 666.955 44.9545C666.735 45.1667 666.453 45.3428 666.108 45.483C665.763 45.6231 665.35 45.6932 664.869 45.6932ZM665.239 44.3295C665.708 44.3295 666.11 44.2367 666.443 44.0511C666.78 43.8655 667.036 43.6231 667.21 43.3239C667.388 43.0208 667.477 42.697 667.477 42.3523V41.2273C667.417 41.2879 667.299 41.3447 667.125 41.3977C666.955 41.447 666.759 41.4905 666.54 41.5284C666.32 41.5625 666.106 41.5947 665.898 41.625C665.689 41.6515 665.515 41.6742 665.375 41.6932C665.045 41.7348 664.744 41.8049 664.472 41.9034C664.203 42.0019 663.987 42.1439 663.824 42.3295C663.665 42.5114 663.585 42.7538 663.585 43.0568C663.585 43.4773 663.741 43.7955 664.051 44.0114C664.362 44.2235 664.758 44.3295 665.239 44.3295ZM671.439 45.5V36.7727H673.081V38.1591H673.172C673.331 37.6894 673.611 37.3201 674.013 37.0511C674.418 36.7784 674.876 36.642 675.388 36.642C675.494 36.642 675.619 36.6458 675.763 36.6534C675.911 36.661 676.026 36.6705 676.109 36.6818V38.3068C676.041 38.2879 675.92 38.267 675.746 38.2443C675.571 38.2178 675.397 38.2045 675.223 38.2045C674.821 38.2045 674.464 38.2898 674.149 38.4602C673.839 38.6269 673.592 38.8598 673.411 39.1591C673.229 39.4545 673.138 39.7917 673.138 40.1705V45.5H671.439ZM680.943 45.6761C680.098 45.6761 679.371 45.4848 678.761 45.1023C678.155 44.7159 677.689 44.1837 677.364 43.5057C677.038 42.8277 676.875 42.0511 676.875 41.1761C676.875 40.2898 677.042 39.5076 677.375 38.8295C677.708 38.1477 678.178 37.6155 678.784 37.233C679.39 36.8504 680.104 36.6591 680.926 36.6591C681.589 36.6591 682.18 36.7822 682.699 37.0284C683.218 37.2708 683.636 37.6117 683.955 38.0511C684.277 38.4905 684.468 39.0038 684.528 39.5909H682.875C682.784 39.1818 682.576 38.8295 682.25 38.5341C681.928 38.2386 681.496 38.0909 680.955 38.0909C680.481 38.0909 680.066 38.2159 679.71 38.4659C679.358 38.7121 679.083 39.0644 678.886 39.5227C678.689 39.9773 678.591 40.5152 678.591 41.1364C678.591 41.7727 678.688 42.322 678.881 42.7841C679.074 43.2462 679.347 43.6042 679.699 43.858C680.055 44.1117 680.473 44.2386 680.955 44.2386C681.277 44.2386 681.568 44.1799 681.83 44.0625C682.095 43.9413 682.316 43.7689 682.494 43.5455C682.676 43.322 682.803 43.053 682.875 42.7386H684.528C684.468 43.303 684.284 43.8068 683.977 44.25C683.67 44.6932 683.259 45.0417 682.744 45.2955C682.233 45.5492 681.633 45.6761 680.943 45.6761ZM688.044 40.3182V45.5H686.345V33.8636H688.021V38.1932H688.129C688.334 37.7235 688.646 37.3504 689.067 37.0739C689.487 36.7973 690.036 36.6591 690.714 36.6591C691.313 36.6591 691.836 36.7822 692.283 37.0284C692.733 37.2746 693.082 37.642 693.328 38.1307C693.578 38.6155 693.703 39.2216 693.703 39.9489V45.5H692.004V40.1534C692.004 39.5133 691.839 39.017 691.51 38.6648C691.18 38.3087 690.722 38.1307 690.135 38.1307C689.733 38.1307 689.374 38.2159 689.055 38.3864C688.741 38.5568 688.493 38.8068 688.311 39.1364C688.133 39.4621 688.044 39.8561 688.044 40.3182Z" fill="white"/>
<defs>
<clipPath id="clip0_1159_2585">
<rect x="258" y="28" width="24" height="24" fill="white"/>
</clipPath>
<clipPath id="clip1_1159_2585">
<rect x="30" y="28" width="24" height="24" fill="white"/>
</clipPath>
</defs>
</svg>
